<svg id="Calque_1" data-name="Calque 1" xmlns="http://www.w3.org/2000/svg" viewBox="0 0 240.36 240.36"><defs><style>.cls-1{font-size:31.7px;fill:#e9ecef;font-family:MADETOMMYOutline-Black, MADE TOMMY Outline;font-weight:800;}.cls-2{fill:#00b4f8;}</style></defs><text class="cls-1" transform="translate(124.98 25.9) rotate(11.79)">M</text><text class="cls-1" transform="matrix(0.89, 0.46, -0.46, 0.89, 154.83, 33.1)">E</text><text class="cls-1" transform="translate(171.46 42.16) rotate(36)"> </text><text class="cls-1" transform="matrix(0.7, 0.72, -0.72, 0.7, 179.46, 47.36)">C</text><text class="cls-1" transform="translate(195.25 63.47) rotate(60.51)">O</text><text class="cls-1" transform="matrix(0.23, 0.97, -0.97, 0.23, 208.04, 86.69)">N</text><text class="cls-1" transform="matrix(-0.02, 1, -1, -0.02, 213.57, 111.13)">T</text><text class="cls-1" transform="translate(213.71 129.45) rotate(102.8)">A</text><text class="cls-1" transform="translate(208.27 152.74) rotate(117.08)">C</text><text class="cls-1" transform="translate(196.98 173.88) rotate(130.73)">T</text><text class="cls-1" transform="matrix(-0.8, 0.61, -0.61, -0.8, 183.9, 188.85)">E</text><text class="cls-1" transform="translate(168.49 200.7) rotate(155.69)">R</text><text class="cls-1" transform="matrix(-0.97, 0.25, -0.25, -0.97, 147.48, 209.47)"> </text><text class="cls-1" transform="matrix(-0.99, 0.12, -0.12, -0.99, 138.54, 211.9)">-</text><text class="cls-1" transform="translate(123.47 213.49) rotate(-179.07)"> </text><text class="cls-1" transform="translate(113.65 214.35) rotate(-167.17)">M</text><text class="cls-1" transform="translate(83.93 206.6) rotate(-151.64)">E</text><text class="cls-1" transform="translate(67.48 197.25) rotate(-142.97)"> </text><text class="cls-1" transform="translate(59.57 191.91) rotate(-133.08)">C</text><text class="cls-1" transform="translate(44.08 175.53) rotate(-118.46)">O</text><text class="cls-1" transform="translate(31.71 152.07) rotate(-102.53)">N</text><text class="cls-1" transform="matrix(0.02, -1, 1, 0.02, 26.75, 127.66)">T</text><text class="cls-1" transform="translate(26.8 109.24) rotate(-76.17)">A</text><text class="cls-1" transform="translate(32.67 86.01) rotate(-61.88)">C</text><text class="cls-1" transform="matrix(0.67, -0.75, 0.75, 0.67, 44.33, 65.1)">T</text><text class="cls-1" transform="matrix(0.81, -0.59, 0.59, 0.81, 57.67, 50.37)">E</text><text class="cls-1" transform="translate(73.29 38.8) rotate(-23.28)">R</text><text class="cls-1" transform="translate(94.45 30.41) rotate(-13.31)"> </text><text class="cls-1" transform="matrix(0.99, -0.1, 0.1, 0.99, 103.43, 28.14)">-</text><circle class="cls-2" cx="120.17" cy="120.18" r="8.2"/></svg>